<?xml version="1.0" standalone="no"?>
<!DOCTYPE svg PUBLIC "-//W3C//DTD SVG 20010904//EN"
 "http://www.w3.org/TR/2001/REC-SVG-20010904/DTD/svg10.dtd">
<svg version="1.0" xmlns="http://www.w3.org/2000/svg"
 width="1024.000000pt" height="1024.000000pt" viewBox="0 0 1024.000000 1024.000000"
 preserveAspectRatio="xMidYMid meet">
<metadata>
Created by potrace 1.14, written by Peter Selinger 2001-2017
</metadata>
<g transform="translate(0.000000,1024.000000) scale(0.100000,-0.100000)"
fill="#000000" stroke="none">
<path d="M0 5125 l0 -5115 5120 0 5120 0 0 5115 0 5115 -5120 0 -5120 0 0
-5115z m7004 3739 c123 -488 138 -558 124 -568 -9 -7 -13 -18 -8 -30 4 -14 9
-16 14 -8 4 7 12 10 17 6 6 -3 3 -11 -6 -18 -19 -13 -23 4 486 -1976 263
-1022 246 -960 264 -960 8 0 15 -4 15 -10 0 -5 -4 -10 -10 -10 -5 0 -10 -7
-10 -15 0 -8 8 -15 18 -15 14 0 26 -34 64 -183 210 -806 558 -2157 558 -2166
0 -6 -7 -11 -15 -11 -8 0 -15 -3 -15 -7 0 -3 28 -114 61 -245 53 -204 60 -241
48 -253 -27 -26 -4930 -1996 -4951 -1989 -11 3 -17 12 -14 20 6 17 -17 19 -45
4 -10 -6 -19 -9 -19 -6 0 2 -52 314 -115 693 -102 613 -613 3698 -1070 6462
-91 546 -165 999 -165 1006 0 6 10 17 22 23 23 11 23 11 -4 11 -15 1 -29 -3
-32 -7 -3 -5 6 -74 20 -153 20 -111 26 -190 30 -344 2 -110 9 -416 14 -680 57
-2654 216 -5041 445 -6653 25 -173 43 -318 40 -322 -7 -11 -65 -31 -65 -22 0
4 -13 97 -30 207 -252 1711 -422 4376 -470 7385 -10 644 -12 620 38 620 12 0
30 4 40 9 9 6 109 24 222 41 185 28 243 40 197 40 -9 0 -17 7 -17 15 0 8 3 15
8 15 4 0 76 11 161 25 85 13 158 22 162 19 4 -2 8 -12 8 -22 0 -9 3 -72 7
-139 l7 -123 -29 0 c-50 0 -61 -16 -20 -30 35 -11 42 -23 30 -53 -4 -13 -14
-10 -50 15 -24 16 -50 28 -57 25 -6 -2 4 -12 23 -22 49 -25 70 -45 70 -67 0
-16 -10 -11 -51 26 -28 25 -55 46 -60 46 -16 0 -9 -16 17 -41 38 -36 66 -86
62 -111 -4 -22 -5 -22 -16 5 -17 40 -71 117 -82 117 -6 0 5 -21 23 -47 48 -68
61 -106 47 -132 -6 -12 -14 -21 -18 -21 -4 0 -15 26 -25 58 -10 32 -28 71 -41
86 l-22 29 -22 -67 c-12 -36 -22 -80 -22 -96 0 -41 -12 -43 -54 -8 -43 35 -56
28 -56 -29 0 -34 31 -64 87 -84 21 -7 37 -27 62 -80 33 -69 35 -70 47 -47 8
12 21 48 30 78 15 50 35 80 56 80 19 0 -15 -122 -49 -174 -14 -22 -19 -36 -11
-34 23 8 68 110 76 176 10 75 32 107 32 46 0 -78 -33 -168 -77 -216 l-25 -26
33 -17 c79 -41 239 -10 288 55 l25 35 -29 -26 c-30 -26 -67 -49 -81 -49 -3 0
10 19 31 41 48 54 84 134 91 201 3 29 7 68 9 86 3 22 0 30 -7 26 -8 -5 -9 -1
-5 10 9 23 -35 105 -76 143 l-31 28 27 -34 c101 -123 91 -349 -18 -451 l-27
-25 26 45 c69 122 52 300 -39 408 -14 16 -25 42 -25 57 0 27 0 27 28 11 l27
-17 -22 20 c-22 18 -23 28 -27 188 l-4 169 126 18 c70 10 147 21 172 26 90 17
493 80 512 80 15 0 19 -5 15 -20 -3 -11 -1 -20 3 -20 4 0 9 -54 9 -119 1 -115
1 -120 -20 -126 -20 -7 -20 -8 -6 -17 10 -5 17 -20 17 -34 l0 -26 -35 22 c-19
12 -35 18 -35 13 0 -4 14 -16 30 -25 19 -11 30 -25 30 -39 0 -22 -2 -21 -33 9
-30 29 -57 41 -57 26 0 -3 16 -24 35 -47 36 -42 43 -61 25 -72 -5 -3 -10 -1
-10 5 0 16 -61 103 -67 96 -3 -3 4 -17 15 -33 41 -58 53 -92 42 -113 -12 -22
-30 -27 -30 -7 0 6 -12 37 -26 67 l-26 55 -14 -40 c-8 -22 -17 -66 -21 -98 -7
-64 -12 -66 -80 -26 l-33 18 0 -44 c0 -39 4 -46 28 -59 15 -8 44 -17 63 -21
31 -6 38 -13 54 -56 11 -27 23 -49 27 -49 6 0 24 54 44 127 1 6 13 17 25 23
21 12 22 11 17 -32 -3 -25 -17 -71 -32 -103 -33 -72 -27 -85 8 -17 24 48 49
158 39 174 -2 5 3 18 12 30 16 22 17 19 13 -58 -4 -70 -10 -91 -41 -150 -37
-68 -37 -69 -7 -35 44 52 64 121 63 220 -2 65 1 81 10 72 8 -8 12 -47 12 -110
0 -89 -3 -102 -31 -157 -21 -41 -36 -59 -48 -57 -39 3 4 -20 49 -27 85 -13
193 21 224 70 l15 25 -24 -21 c-14 -12 -41 -30 -60 -39 l-34 -18 46 52 c26 29
56 75 66 104 21 54 35 220 18 210 -5 -4 -6 -1 -2 6 10 16 -34 89 -76 126 l-33
30 27 -30 c51 -57 73 -121 73 -215 0 -96 -25 -167 -75 -215 l-28 -27 27 54
c23 46 26 65 26 148 0 83 -3 102 -27 150 -15 30 -43 72 -63 94 -36 39 -45 66
-22 66 8 0 9 3 1 8 -7 4 -11 55 -11 144 0 118 2 138 16 141 10 3 8 5 -6 6 -23
1 -31 15 -14 25 5 3 60 13 122 21 63 9 139 20 169 26 110 20 483 79 501 79 24
0 25 -27 2 -33 -14 -4 -13 -5 3 -6 20 -1 22 -8 29 -90 10 -123 1 -167 -33
-176 l-27 -7 23 -11 c15 -7 22 -19 22 -39 0 -33 -4 -34 -37 -8 -14 11 -33 20
-42 20 -10 0 -4 -7 14 -18 40 -25 57 -46 50 -65 -5 -11 -15 -5 -44 26 -48 51
-74 42 -32 -11 36 -45 52 -84 42 -101 -6 -8 -14 2 -25 30 -10 23 -26 53 -37
67 -21 28 -26 17 -6 -13 30 -44 48 -105 37 -125 -16 -30 -28 -24 -40 21 -6 22
-17 53 -23 67 l-12 26 -6 -30 c-4 -16 -7 -50 -8 -76 -1 -56 -14 -60 -68 -27
-19 12 -36 20 -37 18 -2 -2 -7 -18 -10 -35 -6 -27 -3 -35 19 -52 14 -11 44
-23 66 -27 33 -6 43 -13 54 -38 l13 -30 6 31 c4 17 18 38 32 46 23 16 24 16
24 -6 0 -13 -9 -43 -20 -67 -11 -24 -18 -46 -16 -48 8 -9 45 75 52 116 6 39
34 80 34 50 -1 -32 -28 -130 -44 -153 -19 -29 -21 -40 -5 -30 21 12 52 99 58
158 4 38 11 61 20 64 11 4 13 -9 9 -67 -4 -54 -13 -88 -36 -132 l-31 -60 27
-10 c66 -26 208 16 241 71 l15 25 -30 -26 c-29 -27 -66 -49 -80 -49 -5 0 8 17
28 38 50 50 77 116 88 210 8 72 7 80 -17 124 -14 25 -42 61 -62 80 -33 30 -34
30 -10 3 60 -68 84 -161 67 -255 -14 -77 -60 -159 -91 -164 -8 -1 -29 -14 -46
-29 -18 -15 -37 -25 -41 -22 -5 3 5 35 22 70 36 78 41 175 12 254 -18 52 -13
126 9 118 7 -2 26 -30 42 -62 40 -79 47 -184 16 -264 -22 -60 -21 -80 2 -34
56 108 39 255 -39 359 -13 17 -24 41 -24 53 0 19 3 20 23 11 19 -10 20 -10 5
3 -15 12 -18 39 -21 184 l-4 171 73 12 c40 6 96 13 123 15 27 2 67 8 88 14 21
6 127 25 237 42 147 23 201 28 210 19 8 -8 7 -13 -2 -19 -11 -7 -10 -9 2 -14
22 -9 21 -47 -1 -48 -17 -1 -17 -2 0 -6 15 -4 17 -18 17 -104 0 -63 -4 -99
-11 -99 -5 0 -7 -4 -4 -10 3 -5 -2 -10 -12 -10 -16 -1 -16 -2 -2 -10 11 -6 15
-18 11 -35 -4 -24 -6 -25 -28 -10 -13 8 -29 15 -36 15 -7 0 2 -10 20 -21 31
-20 40 -38 25 -53 -4 -3 -21 8 -39 25 -41 40 -54 22 -19 -28 25 -38 33 -73 16
-73 -5 0 -15 15 -21 34 -6 19 -18 40 -26 46 -19 16 -18 12 6 -35 24 -47 25
-68 5 -85 -18 -15 -19 -15 -32 30 l-11 35 -1 -42 c-1 -38 -4 -43 -23 -43 -13
1 -34 7 -48 15 -36 21 -40 19 -40 -19 0 -42 18 -57 75 -64 32 -3 45 -9 46 -21
1 -15 2 -15 6 0 2 9 16 22 30 28 25 12 26 11 19 -21 -17 -92 -17 -93 -8 -78 6
8 15 41 22 73 6 31 16 57 22 57 15 0 3 -91 -17 -130 -9 -18 -14 -34 -11 -37
11 -12 46 86 53 146 11 107 31 79 24 -34 -1 -22 -13 -64 -26 -92 l-24 -53 21
-11 c18 -10 101 -8 176 4 19 3 73 60 72 76 0 3 -6 -1 -13 -10 -13 -18 -77 -59
-90 -59 -5 0 6 15 24 32 50 51 80 125 83 210 3 86 -12 125 -71 178 l-38 35 32
-35 c70 -78 82 -218 28 -319 -30 -54 -67 -95 -51 -56 29 69 35 96 36 150 0 78
-13 123 -55 185 -42 62 -47 97 -12 80 22 -11 22 -11 2 7 -19 17 -20 27 -15
133 3 63 1 125 -4 138 -7 17 -6 26 5 33 10 6 10 9 2 9 -7 0 -13 7 -13 15 0 20
2 21 160 45 74 11 218 33 320 50 102 16 193 30 203 30 19 0 23 -26 5 -33 -8
-4 -7 -6 3 -6 23 -1 32 -51 10 -52 -13 -1 -13 -2 2 -6 14 -4 17 -17 17 -89 0
-52 -4 -84 -11 -84 -5 0 -7 -4 -4 -10 3 -6 -4 -10 -17 -10 -22 -1 -22 -1 -3
-12 11 -6 21 -12 23 -13 2 -2 0 -14 -4 -29 l-6 -25 -34 25 c-43 33 -45 20 -3
-16 25 -20 30 -31 25 -48 -7 -22 -9 -21 -37 18 -46 63 -61 46 -27 -30 22 -48
25 -72 11 -77 -7 -3 -13 2 -13 10 0 22 -30 90 -37 83 -3 -3 2 -23 11 -46 21
-54 20 -77 -4 -83 -11 -3 -20 0 -20 6 0 8 -3 7 -9 -1 -8 -14 -57 -7 -67 9 -14
23 -34 8 -34 -26 0 -46 42 -70 107 -61 l44 6 -6 -38 c-6 -40 -5 -39 28 38 10
24 11 24 14 4 2 -11 -3 -41 -11 -65 -8 -24 -13 -45 -11 -48 7 -7 37 71 43 111
2 21 11 43 20 50 13 12 15 6 9 -44 -3 -31 -15 -77 -26 -103 l-20 -46 37 -16
c36 -15 102 -14 147 3 18 7 19 6 5 -12 -14 -18 -13 -18 9 1 13 11 32 33 43 48
l20 28 -37 -26 c-54 -36 -59 -31 -20 21 35 46 59 113 69 194 4 38 0 54 -24 97
-17 29 -49 66 -75 84 l-45 32 0 99 c0 86 2 98 18 99 16 1 16 2 0 6 -14 3 -18
15 -18 53 l0 48 148 22 c81 12 152 23 157 25 6 2 24 4 40 4 l30 1 139 -556z
m-455 145 c65 -61 82 -203 36 -295 -14 -28 -37 -61 -51 -75 l-26 -24 21 36
c52 88 45 221 -15 311 -22 32 -32 57 -29 69 7 22 24 16 64 -22z m-193 -69 c15
-22 24 -43 20 -47 -3 -3 -7 -4 -8 -2 -21 33 -47 89 -43 89 2 0 17 -18 31 -40z
m179 -49 c38 -112 -11 -291 -80 -291 l-24 0 26 56 c22 49 24 64 20 132 -3 42
-9 91 -12 107 -4 17 -1 43 5 60 l11 30 19 -25 c11 -14 26 -45 35 -69z m-70
-114 c0 -69 -4 -89 -25 -127 -14 -25 -32 -45 -40 -45 -18 0 -17 16 4 70 8 22
15 68 16 103 0 66 17 109 35 91 5 -5 10 -47 10 -92z m-708 -16 c50 -101 34
-246 -36 -318 -12 -13 -30 -23 -41 -23 -18 0 -17 3 8 52 36 70 42 162 14 240
-16 46 -18 65 -11 94 13 45 27 35 66 -45z m-159 4 c-3 -3 -13 7 -23 22 l-17
28 23 -22 c12 -12 20 -25 17 -28z m105 -150 c1 -33 -5 -79 -12 -102 -14 -51
-51 -96 -68 -85 -9 6 -6 24 14 72 22 55 25 74 20 134 -4 43 -2 77 5 90 11 20
12 19 26 -14 8 -19 15 -62 15 -95z m-913 12 c0 -12 0 -11 -24 28 l-17 30 20
-24 c12 -13 21 -28 21 -34z m-2610 4 c0 -5 -43 -14 -95 -21 -52 -8 -99 -16
-104 -19 -13 -9 -30 -465 -41 -1131 -14 -780 1 -1757 40 -2650 61 -1398 189
-3041 320 -4108 17 -133 30 -253 30 -265 0 -17 -10 -28 -36 -41 -20 -9 -38
-15 -40 -13 -5 5 -49 398 -88 792 -80 802 -153 1770 -211 2775 -56 990 -75
1613 -75 2500 0 777 14 1308 52 1947 l12 203 30 5 c17 3 69 12 116 19 47 8 86
14 88 15 1 1 2 -3 2 -8z m-290 -28 c0 -5 -7 -64 -15 -133 -108 -920 -148
-2517 -95 -3745 55 -1262 203 -3214 313 -4130 l13 -104 -60 -25 c-34 -13 -62
-21 -63 -18 -6 17 -85 761 -112 1052 -120 1296 -210 2697 -233 3647 -16 680 5
1482 57 2158 31 401 90 939 130 1190 8 50 15 93 15 97 0 3 8 9 18 11 28 7 32
7 32 0z m290 -185 c0 -404 26 -1473 55 -2283 73 -2031 180 -3551 345 -4905 34
-273 108 -799 115 -811 3 -4 -9 -12 -25 -18 -17 -5 -30 -8 -30 -6 0 2 -11 74
-25 162 -75 481 -175 1378 -240 2143 -94 1127 -170 2612 -215 4230 -11 398
-30 1365 -30 1552 0 121 0 120 43 127 4 0 7 -86 7 -191z m-254 110 c-22 -266
-44 -814 -57 -1433 -25 -1214 24 -2593 157 -4410 54 -750 140 -1690 200 -2186
l6 -55 -48 -22 c-57 -24 -59 -22 -67 58 -3 30 -22 204 -41 385 -114 1067 -232
2671 -286 3915 -18 395 -24 1539 -11 1955 18 584 49 1098 92 1550 29 310 30
315 47 315 12 0 13 -12 8 -72z m2136 11 c54 -78 75 -169 59 -256 -7 -36 -19
-79 -27 -94 -23 -45 -74 -99 -94 -99 -16 0 -13 9 18 71 34 66 37 78 37 158 0
76 -4 94 -32 154 -24 50 -31 76 -26 98 8 40 21 33 65 -32z m834 -16 c16 -106
-32 -254 -83 -261 -29 -4 -29 -5 5 54 24 43 27 60 29 146 0 53 4 106 8 119 7
22 8 22 21 5 7 -11 16 -39 20 -63z m-2877 -290 c-18 -457 -19 -2327 -1 -2808
48 -1312 128 -2596 203 -3285 31 -283 62 -504 159 -1131 50 -317 90 -582 90
-590 0 -12 -108 -65 -115 -57 -1 2 -19 138 -39 303 -161 1334 -285 3034 -348
4780 -17 474 -17 2280 0 2725 14 382 17 407 40 413 9 2 19 2 21 1 2 -2 -3
-160 -10 -351z m104 -185 c18 -1394 93 -3291 182 -4588 73 -1046 192 -2211
296 -2884 11 -71 16 -133 12 -137 -14 -13 -115 -50 -121 -44 -14 13 -219 1375
-252 1670 -81 729 -166 2106 -212 3450 -16 475 -16 2158 0 2590 16 426 20 473
41 478 51 14 47 49 54 -535z m897 462 c0 -5 -7 -7 -15 -4 -8 4 -15 8 -15 10 0
2 7 4 15 4 8 0 15 -4 15 -10z m989 -39 c47 -91 44 -220 -5 -311 -33 -60 -48
-74 -70 -66 -15 6 -15 8 -1 24 53 59 77 183 53 283 -13 56 -13 109 0 109 2 0
12 -17 23 -39z m-839 -169 c27 -72 27 -183 0 -256 -25 -65 -87 -140 -113 -135
-16 4 -16 7 7 38 62 83 77 225 36 339 -16 46 -20 73 -15 100 l7 37 29 -35 c16
-19 38 -58 49 -88z m-190 67 c15 -28 5 -23 -15 7 -9 15 -12 23 -6 20 6 -4 16
-16 21 -27z m120 -119 c14 -51 12 -149 -5 -206 -18 -61 -70 -134 -96 -134 -20
0 -26 15 -9 25 20 13 60 104 68 159 5 31 5 82 0 118 -5 35 -6 74 -3 88 6 24 7
24 21 5 8 -10 19 -35 24 -55z m-52 -116 c-7 -102 -66 -225 -102 -211 -16 6
-15 10 7 37 40 47 67 131 67 209 0 37 3 71 7 75 14 14 25 -41 21 -110z m26
-4737 c240 -1445 436 -2633 436 -2640 0 -11 -689 -297 -716 -297 -26 0 -157
1037 -233 1845 -139 1472 -241 3526 -276 5550 l-5 310 179 -1070 c99 -588 376
-2252 615 -3698z"/>
<path d="M6826 9372 c6 -4 15 -26 19 -50 4 -24 9 -41 12 -39 2 3 1 26 -2 51
-5 33 -12 46 -24 46 -10 0 -12 -3 -5 -8z"/>
<path d="M6750 9309 l-35 -8 37 3 c21 1 40 -3 42 -9 3 -6 5 -5 5 2 1 17 -10
20 -49 12z"/>
<path d="M6333 9303 c9 -2 23 -2 30 0 6 3 -1 5 -18 5 -16 0 -22 -2 -12 -5z"/>
<path d="M6268 9293 c6 -2 18 -2 25 0 6 3 1 5 -13 5 -14 0 -19 -2 -12 -5z"/>
<path d="M6673 9293 c9 -2 23 -2 30 0 6 3 -1 5 -18 5 -16 0 -22 -2 -12 -5z"/>
<path d="M6208 9283 c6 -2 18 -2 25 0 6 3 1 5 -13 5 -14 0 -19 -2 -12 -5z"/>
<path d="M6603 9283 c9 -2 25 -2 35 0 9 3 1 5 -18 5 -19 0 -27 -2 -17 -5z"/>
<path d="M6138 9273 c6 -2 18 -2 25 0 6 3 1 5 -13 5 -14 0 -19 -2 -12 -5z"/>
<path d="M6543 9273 c9 -2 23 -2 30 0 6 3 -1 5 -18 5 -16 0 -22 -2 -12 -5z"/>
<path d="M6801 9264 c0 -11 3 -14 6 -6 3 7 2 16 -1 19 -3 4 -6 -2 -5 -13z"/>
<path d="M6078 9263 c6 -2 18 -2 25 0 6 3 1 5 -13 5 -14 0 -19 -2 -12 -5z"/>
<path d="M6013 9253 c9 -2 23 -2 30 0 6 3 -1 5 -18 5 -16 0 -22 -2 -12 -5z"/>
<path d="M5948 9243 c6 -2 18 -2 25 0 6 3 1 5 -13 5 -14 0 -19 -2 -12 -5z"/>
<path d="M6343 9243 c9 -2 25 -2 35 0 9 3 1 5 -18 5 -19 0 -27 -2 -17 -5z"/>
<path d="M5883 9233 c9 -2 23 -2 30 0 6 3 -1 5 -18 5 -16 0 -22 -2 -12 -5z"/>
<path d="M6283 9233 c9 -2 23 -2 30 0 6 3 -1 5 -18 5 -16 0 -22 -2 -12 -5z"/>
<path d="M6810 9233 c0 -4 76 -306 170 -672 93 -367 199 -783 235 -926 163
-641 331 -1298 415 -1625 50 -195 129 -501 175 -680 306 -1198 328 -1285 333
-1272 2 6 -24 116 -57 244 -104 405 -239 942 -239 958 -1 35 -35 165 -47 184
-7 12 -19 50 -25 86 -17 96 -162 674 -171 680 -4 3 -13 34 -19 70 -13 69 -147
606 -181 725 -11 39 -22 81 -25 95 -14 69 -148 584 -169 645 -13 39 -26 88
-29 110 -3 33 -61 259 -96 380 -34 115 -189 734 -195 775 -4 27 -11 50 -17 50
-5 0 -6 10 -3 21 4 13 3 19 -2 16 -5 -3 -17 27 -27 68 -15 65 -26 93 -26 68z"/>
<path d="M5818 9223 c6 -2 18 -2 25 0 6 3 1 5 -13 5 -14 0 -19 -2 -12 -5z"/>
<path d="M6213 9223 c9 -2 23 -2 30 0 6 3 -1 5 -18 5 -16 0 -22 -2 -12 -5z"/>
<path d="M5758 9213 c6 -2 18 -2 25 0 6 3 1 5 -13 5 -14 0 -19 -2 -12 -5z"/>
<path d="M6153 9213 c9 -2 23 -2 30 0 6 3 -1 5 -18 5 -16 0 -22 -2 -12 -5z"/>
<path d="M6083 9203 c9 -2 23 -2 30 0 6 3 -1 5 -18 5 -16 0 -22 -2 -12 -5z"/>
<path d="M6023 9193 c9 -2 23 -2 30 0 6 3 -1 5 -18 5 -16 0 -22 -2 -12 -5z"/>
<path d="M5563 9183 c9 -2 23 -2 30 0 6 3 -1 5 -18 5 -16 0 -22 -2 -12 -5z"/>
<path d="M5958 9183 c6 -2 18 -2 25 0 6 3 1 5 -13 5 -14 0 -19 -2 -12 -5z"/>
<path d="M5498 9173 c6 -2 18 -2 25 0 6 3 1 5 -13 5 -14 0 -19 -2 -12 -5z"/>
<path d="M5893 9173 c9 -2 23 -2 30 0 6 3 -1 5 -18 5 -16 0 -22 -2 -12 -5z"/>
<path d="M5438 9163 c6 -2 18 -2 25 0 6 3 1 5 -13 5 -14 0 -19 -2 -12 -5z"/>
<path d="M5828 9163 c6 -2 18 -2 25 0 6 3 1 5 -13 5 -14 0 -19 -2 -12 -5z"/>
<path d="M5368 9153 c6 -2 18 -2 25 0 6 3 1 5 -13 5 -14 0 -19 -2 -12 -5z"/>
<path d="M5763 9153 c9 -2 23 -2 30 0 6 3 -1 5 -18 5 -16 0 -22 -2 -12 -5z"/>
<path d="M5308 9143 c6 -2 18 -2 25 0 6 3 1 5 -13 5 -14 0 -19 -2 -12 -5z"/>
<path d="M5238 9133 c6 -2 18 -2 25 0 6 3 1 5 -13 5 -14 0 -19 -2 -12 -5z"/>
<path d="M5178 9123 c6 -2 18 -2 25 0 6 3 1 5 -13 5 -14 0 -19 -2 -12 -5z"/>
<path d="M5568 9123 c6 -2 18 -2 25 0 6 3 1 5 -13 5 -14 0 -19 -2 -12 -5z"/>
<path d="M5108 9113 c6 -2 18 -2 25 0 6 3 1 5 -13 5 -14 0 -19 -2 -12 -5z"/>
<path d="M5508 9113 c7 -3 16 -2 19 1 4 3 -2 6 -13 5 -11 0 -14 -3 -6 -6z"/>
<path d="M5048 9103 c6 -2 18 -2 25 0 6 3 1 5 -13 5 -14 0 -19 -2 -12 -5z"/>
<path d="M5438 9103 c6 -2 18 -2 25 0 6 3 1 5 -13 5 -14 0 -19 -2 -12 -5z"/>
<path d="M4988 9093 c7 -3 16 -2 19 1 4 3 -2 6 -13 5 -11 0 -14 -3 -6 -6z"/>
<path d="M5378 9093 c7 -3 16 -2 19 1 4 3 -2 6 -13 5 -11 0 -14 -3 -6 -6z"/>
<path d="M4918 9083 c6 -2 18 -2 25 0 6 3 1 5 -13 5 -14 0 -19 -2 -12 -5z"/>
<path d="M5318 9083 c7 -3 16 -2 19 1 4 3 -2 6 -13 5 -11 0 -14 -3 -6 -6z"/>
<path d="M5248 9073 c7 -3 16 -2 19 1 4 3 -2 6 -13 5 -11 0 -14 -3 -6 -6z"/>
<path d="M4728 9053 c7 -3 16 -2 19 1 4 3 -2 6 -13 5 -11 0 -14 -3 -6 -6z"/>
<path d="M4668 9043 c7 -3 16 -2 19 1 4 3 -2 6 -13 5 -11 0 -14 -3 -6 -6z"/>
<path d="M4538 9023 c7 -3 16 -2 19 1 4 3 -2 6 -13 5 -11 0 -14 -3 -6 -6z"/>
<path d="M6143 8815 c0 -27 2 -38 4 -22 2 15 2 37 0 50 -2 12 -4 0 -4 -28z"/>
<path d="M6642 8840 c0 -14 2 -19 5 -12 2 6 2 18 0 25 -3 6 -5 1 -5 -13z"/>
<path d="M3378 8843 c6 -2 18 -2 25 0 6 3 1 5 -13 5 -14 0 -19 -2 -12 -5z"/>
<path d="M6642 8750 c0 -14 2 -19 5 -12 2 6 2 18 0 25 -3 6 -5 1 -5 -13z"/>
<path d="M5362 8690 c0 -14 2 -19 5 -12 2 6 2 18 0 25 -3 6 -5 1 -5 -13z"/>
<path d="M2495 8658 c-180 -28 -204 -34 -194 -41 8 -7 399 57 399 65 0 4 -3 8
-7 7 -5 -1 -93 -15 -198 -31z"/>
<path d="M5883 8635 c0 -33 2 -45 4 -27 2 18 2 45 0 60 -2 15 -4 0 -4 -33z"/>
<path d="M6220 8605 c13 -14 26 -25 28 -25 3 0 -5 11 -18 25 -13 14 -26 25
-28 25 -3 0 5 -11 18 -25z"/>
<path d="M5072 8540 c0 -14 2 -19 5 -12 2 6 2 18 0 25 -3 6 -5 1 -5 -13z"/>
<path d="M6297 8549 c7 -7 15 -10 18 -7 3 3 -2 9 -12 12 -14 6 -15 5 -6 -5z"/>
<path d="M6495 8550 c-3 -5 -1 -10 4 -10 6 0 11 5 11 10 0 6 -2 10 -4 10 -3 0
-8 -4 -11 -10z"/>
<path d="M6388 8523 c12 -2 32 -2 45 0 12 2 2 4 -23 4 -25 0 -35 -2 -22 -4z"/>
<path d="M5420 8457 c0 -2 15 -16 33 -33 l32 -29 -29 33 c-28 30 -36 37 -36
29z"/>
<path d="M2730 8420 c-12 -16 -19 -30 -16 -30 2 0 14 14 26 30 12 17 19 30 16
30 -2 0 -14 -13 -26 -30z"/>
<path d="M5071 8424 c0 -11 3 -14 6 -6 3 7 2 16 -1 19 -3 4 -6 -2 -5 -13z"/>
<path d="M3623 8375 c0 -27 2 -38 4 -22 2 15 2 37 0 50 -2 12 -4 0 -4 -28z"/>
<path d="M2690 8359 c-7 -11 -10 -23 -7 -25 2 -2 9 7 15 21 14 30 7 33 -8 4z"/>
<path d="M4222 8340 c0 -14 2 -19 5 -12 2 6 2 18 0 25 -3 6 -5 1 -5 -13z"/>
<path d="M2661 8270 c-6 -28 -10 -68 -10 -88 1 -30 3 -27 9 18 4 30 10 70 14
88 4 17 5 32 3 32 -3 0 -10 -23 -16 -50z"/>
<path d="M3281 8234 c0 -11 3 -14 6 -6 3 7 2 16 -1 19 -3 4 -6 -2 -5 -13z"/>
<path d="M2662 8125 c0 -11 3 -29 8 -40 11 -25 11 1 0 35 -6 20 -8 21 -8 5z"/>
<path d="M2680 8057 c0 -38 103 -158 162 -188 57 -29 59 -22 3 10 -60 35 -105
80 -139 141 -14 25 -26 41 -26 37z"/>
<path d="M2908 7843 c7 -3 16 -2 19 1 4 3 -2 6 -13 5 -11 0 -14 -3 -6 -6z"/>
<path d="M8170 3916 c0 -17 83 -336 87 -333 4 5 -75 329 -83 336 -2 2 -4 1 -4
-3z"/>
<path d="M8261 3554 c0 -11 3 -14 6 -6 3 7 2 16 -1 19 -3 4 -6 -2 -5 -13z"/>
<path d="M8271 3514 c0 -11 3 -14 6 -6 3 7 2 16 -1 19 -3 4 -6 -2 -5 -13z"/>
<path d="M8281 3474 c0 -11 3 -14 6 -6 3 7 2 16 -1 19 -3 4 -6 -2 -5 -13z"/>
<path d="M8291 3434 c0 -11 3 -14 6 -6 3 7 2 16 -1 19 -3 4 -6 -2 -5 -13z"/>
<path d="M8301 3394 c0 -11 3 -14 6 -6 3 7 2 16 -1 19 -3 4 -6 -2 -5 -13z"/>
<path d="M8311 3354 c0 -11 3 -14 6 -6 3 7 2 16 -1 19 -3 4 -6 -2 -5 -13z"/>
<path d="M8420 2922 c0 -4 28 -116 62 -250 33 -133 59 -244 57 -246 -2 -1
-1088 -441 -2414 -976 -1325 -535 -2421 -979 -2435 -987 l-25 -14 25 4 c26 4
4870 1955 4882 1966 3 3 -18 98 -47 211 -75 292 -74 287 -90 294 -8 3 -15 2
-15 -2z"/>
</g>
</svg>
